<?xml version="1.0" standalone="no"?>
<!DOCTYPE svg PUBLIC "-//W3C//DTD SVG 20010904//EN"
 "http://www.w3.org/TR/2001/REC-SVG-20010904/DTD/svg10.dtd">
<svg version="1.0" xmlns="http://www.w3.org/2000/svg"
 width="4250.000000pt" height="5793.000000pt" viewBox="0 0 4250.000000 5793.000000"
 preserveAspectRatio="xMidYMid meet">

<g transform="translate(0.000000,5793.000000) scale(0.100000,-0.100000)"
fill="#000000" stroke="none">
<path d="M17190 56474 c-883 -41 -1555 -128 -2327 -299 -2586 -576 -4877
-1922 -6509 -3825 -1956 -2279 -3206 -5575 -3589 -9460 -65 -659 -89 -1156
-89 -1820 0 -730 29 -1224 110 -1860 41 -319 60 -425 159 -855 120 -525 155
-681 155 -699 0 -8 -39 -38 -87 -67 -336 -201 -771 -525 -1145 -850 -197 -172
-669 -642 -832 -829 -1587 -1818 -2222 -3943 -1885 -6315 126 -886 414 -1840
822 -2721 305 -657 556 -1067 1266 -2059 498 -696 715 -1026 916 -1390 293
-530 482 -1035 594 -1590 311 -1543 54 -3162 -773 -4870 -240 -495 -490 -927
-876 -1515 -103 -157 -209 -323 -237 -370 -843 -1423 -1182 -3336 -983 -5555
42 -459 132 -1071 216 -1466 l38 -176 80 27 c313 107 554 208 871 365 619 306
1238 733 1780 1225 178 162 505 495 659 670 996 1136 1768 2594 2259 4270 l54
185 104 43 c144 60 515 202 814 312 609 224 912 320 1805 577 776 222 1020
296 1385 418 1068 356 1785 731 2355 1232 795 698 1323 1763 1554 3133 214
1267 230 3181 41 4814 -46 404 -44 391 -74 409 -54 32 -382 265 -536 380
-1669 1254 -2993 2958 -3910 5032 l-97 221 -71 -25 c-62 -21 -90 -25 -202 -25
-153 -1 -240 15 -430 78 -304 101 -632 279 -870 471 -116 94 -311 294 -405
415 -163 211 -315 471 -425 728 -276 645 -433 1473 -411 2172 12 384 56 654
143 875 154 393 407 593 784 621 l86 7 41 -119 c22 -66 73 -191 112 -279 212
-470 251 -560 289 -664 50 -134 91 -298 91 -361 0 -25 5 -52 11 -60 8 -11 9
-4 5 29 -28 196 -42 844 -27 1266 26 773 90 1424 216 2201 l7 41 112 43 c311
120 623 264 951 438 121 64 224 119 228 121 5 2 -20 -35 -56 -82 -73 -95 -97
-134 -75 -120 7 4 63 41 123 81 203 135 503 269 793 356 752 224 1611 219
2512 -15 85 -22 367 -106 625 -186 259 -80 657 -203 885 -273 479 -148 794
-237 976 -276 108 -23 154 -28 284 -28 l155 -1 67 33 c74 36 132 94 188 187
30 51 34 66 34 124 -1 123 -62 230 -218 386 -430 428 -1310 808 -2221 959
-327 54 -547 74 -900 83 -475 11 -930 -35 -1322 -135 -62 -16 -110 -26 -108
-22 2 3 77 60 166 125 964 704 1749 1492 2311 2320 531 782 881 1677 1037
2657 33 205 59 462 91 908 34 474 63 832 85 1050 40 388 123 962 142 981 4 4
69 26 143 48 1433 429 3017 410 4688 -56 l203 -56 -32 -33 -31 -32 44 -30
c207 -142 805 -353 1563 -550 127 -33 245 -63 264 -67 52 -11 200 -100 334
-201 173 -130 335 -272 541 -474 1073 -1052 2079 -2590 2824 -4315 838 -1942
1358 -4132 1541 -6485 45 -577 60 -913 68 -1487 3 -266 9 -483 13 -483 12 0
394 1546 536 2175 25 110 51 203 57 207 25 15 167 48 257 59 195 23 386 -6
545 -86 115 -57 188 -116 270 -218 192 -240 292 -592 314 -1109 21 -495 -33
-998 -166 -1523 -237 -941 -651 -1600 -1261 -2008 -135 -90 -459 -255 -612
-311 -313 -114 -573 -135 -743 -60 -20 10 -39 15 -41 13 -2 -2 -43 -94 -91
-204 -578 -1316 -1310 -2466 -2230 -3505 -166 -187 -728 -749 -915 -915 -413
-365 -816 -678 -1257 -976 -133 -90 -194 -137 -198 -152 -14 -66 -75 -642
-100 -952 -78 -981 -86 -2120 -20 -3070 115 -1645 502 -2830 1220 -3737 116
-147 377 -413 535 -545 497 -418 1117 -752 1960 -1058 385 -140 733 -248 1625
-505 938 -270 1232 -363 1770 -558 874 -318 1616 -627 2290 -956 250 -122 250
-122 560 -346 1016 -733 1585 -1195 2012 -1634 535 -548 834 -1087 930 -1671
22 -137 25 -484 4 -620 -77 -518 -265 -983 -559 -1378 -520 -702 -1297 -1164
-2192 -1304 -166 -26 -638 -26 -795 0 -596 99 -1053 328 -1425 713 -409 424
-629 962 -630 1541 0 195 19 348 64 526 86 332 245 620 480 864 178 185 348
310 583 427 540 270 1091 272 1707 7 202 -87 471 -246 664 -392 75 -56 95 -63
57 -18 -31 38 -50 73 -119 229 -84 189 -268 412 -496 602 -315 264 -816 503
-1280 612 -275 65 -496 90 -795 90 -248 0 -389 -12 -612 -50 -1620 -276 -3073
-1648 -3503 -3308 -89 -344 -124 -616 -124 -986 -1 -270 8 -384 45 -605 146
-877 644 -1657 1454 -2281 507 -390 1223 -745 1965 -972 372 -115 896 -236
1100 -256 25 -2 115 -14 200 -25 1839 -247 3712 190 5290 1234 1522 1006 2667
2537 3225 4310 623 1981 789 4018 479 5905 -187 1139 -512 2083 -1053 3059
-320 577 -679 1123 -1329 2021 -130 179 -281 388 -337 465 -527 728 -896 1467
-1095 2193 -217 789 -255 1619 -115 2492 52 321 102 545 235 1040 549 2051
814 3474 881 4735 15 289 6 1045 -15 1295 -77 895 -264 1708 -598 2600 -319
853 -817 1853 -1506 3025 -482 820 -795 1459 -1135 2315 -357 901 -621 1711
-1177 3615 -511 1750 -761 2524 -1092 3385 -544 1412 -1217 2631 -1982 3589
-1031 1292 -2184 2061 -3426 2285 -281 51 -401 60 -765 60 -262 0 -374 -4
-488 -17 -464 -56 -821 -144 -1118 -277 l-109 -48 -15 28 c-47 92 -729 826
-1156 1245 -360 354 -930 736 -1588 1065 -1165 582 -2463 912 -3976 1010 -159
11 -991 21 -1135 14z"/>
<path d="M24770 40389 c-951 -59 -1893 -341 -2530 -756 -380 -249 -584 -495
-567 -684 4 -48 13 -72 47 -125 100 -152 197 -204 384 -204 238 0 479 63 1726
450 834 259 918 284 1120 334 809 203 1589 219 2282 45 372 -93 716 -239 985
-416 45 -29 85 -58 88 -63 4 -6 11 -10 16 -10 14 0 -61 108 -146 208 -40 48
-126 139 -191 203 -497 484 -1166 812 -1944 953 -365 66 -852 91 -1270 65z"/>
<path d="M14496 38669 c-436 -29 -885 -139 -1311 -321 -142 -61 -419 -198
-412 -204 2 -2 68 23 147 56 419 177 843 295 1268 351 220 30 629 32 822 5
561 -77 1036 -302 1418 -670 141 -135 330 -362 491 -589 85 -121 104 -138 123
-119 9 9 -6 45 -53 139 -324 641 -883 1097 -1554 1268 -296 75 -631 106 -939
84z"/>
<path d="M24795 38670 c-581 -38 -1088 -236 -1494 -585 -177 -153 -363 -371
-484 -570 -76 -126 -169 -315 -163 -331 12 -31 37 -9 107 89 444 625 819 945
1332 1137 316 118 593 164 982 164 583 0 1125 -125 1808 -419 22 -9 36 -12 33
-7 -10 16 -341 176 -476 230 -547 220 -1139 325 -1645 292z"/>
<path d="M14483 38280 c-621 -42 -1308 -278 -2074 -711 l-184 -104 -130 0
c-112 0 -138 4 -187 23 -60 24 -153 101 -177 146 -25 46 -34 30 -27 -51 16
-175 44 -273 102 -348 l34 -45 -33 0 c-131 1 -266 83 -323 196 l-25 49 5 -82
c6 -93 41 -209 88 -293 51 -90 170 -200 269 -249 132 -65 216 -83 412 -88 92
-3 196 -2 231 2 l65 6 41 82 c82 160 189 306 340 461 183 189 349 310 582 426
321 159 659 232 1074 233 116 0 217 -4 224 -8 8 -5 -31 -20 -101 -41 -149 -43
-299 -119 -438 -221 -22 -16 -70 -58 -141 -123 -38 -35 -152 -178 -195 -245
-85 -134 -161 -342 -191 -525 -23 -138 -14 -379 19 -520 179 -760 939 -1219
1697 -1023 449 116 810 451 955 886 58 175 70 251 69 452 0 235 -23 345 -118
580 -15 37 -8 31 80 -60 111 -115 260 -297 357 -437 158 -226 351 -579 443
-810 l39 -97 48 -6 c27 -4 51 -4 54 -1 8 8 -41 194 -92 351 -196 593 -498
1109 -870 1480 -438 439 -948 674 -1555 715 -159 11 -202 11 -367 0z m1428
-944 c208 -44 360 -212 391 -432 13 -86 -9 -212 -49 -286 -108 -199 -318 -304
-532 -268 -267 45 -455 304 -414 571 21 134 117 281 231 353 39 24 139 62 182
69 54 9 128 6 191 -7z"/>
<path d="M24880 38284 c-453 -31 -847 -160 -1195 -392 -518 -345 -937 -920
-1214 -1664 -54 -146 -126 -385 -137 -457 l-7 -44 49 7 c27 4 52 11 55 14 3 4
21 45 39 92 51 131 226 470 318 617 152 244 356 506 512 658 71 69 72 69 51
29 -35 -70 -88 -244 -105 -343 -20 -120 -21 -346 -1 -469 79 -487 432 -908
898 -1071 159 -56 273 -74 457 -75 185 0 294 16 445 66 725 241 1114 1025 870
1753 -30 88 -90 220 -127 280 -74 116 -223 285 -325 365 -54 43 -202 134 -261
161 -71 33 -263 99 -288 99 -8 0 -14 4 -14 8 0 15 245 22 403 12 440 -29 803
-145 1136 -364 279 -182 524 -450 685 -748 l47 -87 65 -7 c120 -12 390 2 478
26 259 70 432 234 495 472 21 76 38 208 27 208 -3 0 -13 -17 -21 -37 -23 -56
-62 -102 -114 -134 -53 -34 -158 -69 -206 -69 l-34 0 34 50 c62 92 100 240 93
362 l-3 57 -45 -57 c-36 -45 -63 -66 -124 -97 l-79 -40 -136 0 -136 0 -160 94
c-200 116 -590 310 -799 396 -382 158 -754 261 -1101 305 -149 19 -419 31
-525 24z m-877 -949 c247 -52 425 -310 387 -559 -28 -184 -162 -346 -336 -406
-178 -62 -375 -17 -507 114 -203 201 -208 514 -12 712 130 131 287 178 468
139z"/>
<path d="M18785 31816 c-51 -22 -85 -71 -85 -121 0 -37 5 -47 35 -73 62 -55
248 -100 494 -118 l94 -7 -29 38 c-40 53 -190 182 -259 224 -106 65 -190 83
-250 57z"/>
<path d="M20762 31812 c-29 -11 -86 -41 -125 -68 -75 -51 -257 -219 -257 -237
0 -10 112 -5 255 14 169 22 315 73 349 121 32 46 9 126 -47 163 -39 25 -114
28 -175 7z"/>
<path d="M19365 29363 c11 -63 36 -145 56 -186 l20 -38 -136 -65 c-229 -110
-485 -185 -790 -231 -96 -14 -182 -18 -435 -17 -396 0 -548 18 -1053 127 -26
5 -50 7 -53 4 -3 -3 3 -18 14 -34 11 -15 46 -68 78 -118 86 -132 236 -315 369
-449 532 -534 1197 -831 1955 -874 252 -15 911 -7 1075 13 395 47 715 144
1053 320 430 224 844 599 1103 999 41 63 82 118 92 121 23 8 22 25 -2 25 -10
0 -63 -11 -117 -25 -368 -90 -888 -135 -1249 -106 -379 31 -732 125 -1008 269
-67 35 -86 50 -81 61 53 123 78 241 51 241 -9 0 -19 -17 -26 -47 -22 -86 -88
-209 -144 -266 -58 -58 -117 -90 -214 -114 -75 -19 -158 -10 -258 27 -105 39
-199 160 -251 325 -14 45 -28 71 -39 73 -14 3 -15 -2 -10 -35z m650 -623 c270
-38 339 -63 431 -155 80 -80 98 -122 99 -230 0 -78 -4 -98 -27 -148 -80 -170
-272 -262 -574 -274 -403 -16 -700 135 -721 367 -15 158 105 326 278 391 48
18 157 45 214 52 62 8 232 6 300 -3z"/>
</g>
</svg>
