<?xml version="1.0" standalone="no"?>
<!DOCTYPE svg PUBLIC "-//W3C//DTD SVG 20010904//EN"
 "http://www.w3.org/TR/2001/REC-SVG-20010904/DTD/svg10.dtd">
<svg version="1.0" xmlns="http://www.w3.org/2000/svg"
 width="4499.000000pt" height="5473.000000pt" viewBox="0 0 4499.000000 5473.000000"
 preserveAspectRatio="xMidYMid meet">

<g transform="translate(0.000000,5473.000000) scale(0.100000,-0.100000)"
fill="#000000" stroke="none">
<path d="M24080 52700 c-735 -29 -1342 -88 -2275 -220 -1158 -163 -1743 -214
-2480 -214 -698 0 -1217 54 -1824 189 -85 19 -157 32 -160 30 -5 -6 286 -147
432 -209 587 -250 1378 -452 2067 -529 115 -13 115 -13 -260 -20 -372 -6 -505
-13 -795 -42 -192 -19 -456 -55 -473 -64 -22 -12 351 -115 673 -185 211 -46
530 -101 735 -126 91 -11 179 -21 195 -23 17 -2 -115 -5 -291 -6 -335 -1 -567
-11 -839 -36 -1286 -119 -2448 -504 -3593 -1192 -506 -303 -995 -649 -1697
-1198 -900 -704 -1042 -812 -1349 -1027 -783 -548 -1441 -837 -2178 -958 -162
-27 -408 -50 -526 -50 -53 0 -93 -2 -90 -5 11 -12 365 -95 503 -119 846 -144
1810 -34 2640 301 61 25 117 47 125 50 8 3 -27 -21 -77 -53 -593 -378 -1045
-876 -1535 -1694 -252 -420 -421 -744 -1068 -2045 -279 -561 -543 -1081 -585
-1155 -587 -1023 -1453 -1725 -2498 -2025 -250 -71 -596 -134 -755 -136 -113
-1 -101 -13 70 -67 390 -123 745 -194 1198 -239 219 -21 800 -24 1025 -5 687
60 1382 220 1935 446 74 30 136 53 138 51 5 -4 -160 -131 -273 -210 -625 -435
-1514 -773 -2509 -956 -195 -36 -462 -75 -616 -89 -63 -7 -126 -14 -140 -17
l-25 -6 30 -9 c204 -61 733 -182 1061 -242 780 -143 1548 -209 2451 -210 l503
-1 0 -235 c1 -900 87 -1895 241 -2769 22 -124 42 -242 44 -261 16 -127 146
-697 235 -1027 204 -766 474 -1527 790 -2228 178 -397 541 -1099 548 -1062 2
10 -3 143 -12 295 -18 313 -33 648 -40 892 l-5 165 14 -150 c7 -82 16 -181 19
-220 18 -236 105 -1088 141 -1380 3 -22 18 -146 35 -275 16 -129 31 -253 34
-275 2 -22 7 -56 10 -75 3 -19 8 -53 10 -75 18 -151 108 -733 162 -1055 86
-507 86 -511 91 -507 2 2 -1 58 -7 123 -5 65 -12 153 -15 194 -2 41 -12 170
-20 285 -22 313 -42 686 -67 1270 -17 382 -16 1841 0 2180 25 506 50 874 77
1145 3 25 7 72 10 105 17 183 60 530 91 744 184 1270 498 2258 950 2990 l39
63 395 -5 c518 -7 904 -40 1460 -123 1066 -160 2355 -489 3633 -928 170 -58
249 -81 252 -73 7 21 296 1381 298 1402 2 17 -22 28 -178 80 -1183 398 -2593
628 -3695 601 -218 -5 -240 -4 -200 8 25 8 160 46 300 86 300 85 939 295 1230
404 1214 457 2220 1003 3030 1645 100 78 100 76 10 -28 -378 -441 -905 -886
-1417 -1196 l-103 -63 63 -6 c450 -46 1242 -46 1862 -1 268 20 806 77 944 100
13 2 45 7 70 11 373 52 970 172 1391 280 1802 461 3406 1277 4735 2408 642
546 1255 1206 1759 1889 60 81 111 146 113 143 2 -2 -3 -57 -11 -122 -8 -66
-20 -186 -27 -269 -6 -82 -14 -188 -19 -235 -8 -87 -4 -951 5 -1050 3 -30 12
-131 20 -225 115 -1265 522 -2333 1176 -3090 124 -143 353 -363 501 -482 101
-81 317 -231 441 -308 19 -11 26 -79 52 -465 36 -547 40 -722 40 -1595 0 -868
-4 -1048 -40 -1680 -64 -1106 -200 -2378 -358 -3342 -13 -79 -21 -143 -17
-143 9 0 256 271 428 468 237 273 560 683 733 930 46 66 57 68 40 6 -6 -21 -9
-39 -7 -41 1 -2 22 6 45 18 83 40 196 62 296 57 79 -3 101 -8 158 -36 142 -70
220 -215 248 -462 35 -300 -58 -652 -244 -930 -104 -155 -274 -337 -410 -439
-36 -28 -54 -48 -49 -53 13 -13 396 -25 492 -16 389 36 673 119 935 273 490
288 786 792 874 1487 72 567 2 1023 -204 1333 -219 330 -598 450 -1000 319
-86 -29 -190 -78 -270 -128 -27 -18 -54 -35 -60 -38 -5 -4 46 107 115 245 183
367 350 752 485 1119 52 139 198 597 254 793 206 724 342 1492 396 2230 8 121
19 267 23 325 l8 105 42 -128 c56 -167 107 -380 133 -547 40 -257 37 -644 -6
-890 -7 -41 -12 -76 -11 -78 8 -7 194 492 297 798 689 2034 958 3967 764 5495
-134 1054 -502 1942 -1079 2605 -36 41 -64 75 -63 76 1 2 55 10 119 18 368 48
823 -100 1193 -389 107 -83 277 -262 344 -360 104 -153 83 -109 -97 205 -631
1099 -1291 1772 -2147 2186 -370 178 -732 290 -1130 348 -379 56 -843 44
-1230 -30 -124 -24 -341 -75 -376 -89 -14 -5 -17 8 -23 102 -22 346 -63 636
-131 933 -108 470 -325 1020 -500 1265 -640 900 -1510 1578 -2617 2039 -949
395 -2000 614 -3338 696 -224 14 -1125 20 -1390 10z"/>
<path d="M28309 38189 c-824 -35 -1782 -197 -2676 -454 -253 -73 -620 -193
-628 -205 -3 -6 292 -1414 299 -1427 1 -1 186 60 411 136 1990 664 3678 1001
5019 1001 538 0 1008 -56 1311 -155 59 -19 110 -33 112 -31 5 5 -117 111 -232
201 -874 681 -2101 998 -3616 934z"/>
<path d="M16615 35604 c-896 -90 -1507 -473 -1831 -1149 -58 -121 -114 -279
-139 -395 -22 -105 -31 -364 -15 -486 15 -127 68 -334 116 -455 70 -180 176
-369 206 -369 22 0 22 3 3 109 -46 263 -62 652 -36 866 36 288 107 487 252
706 81 122 288 330 424 426 424 301 1002 473 1586 473 358 0 677 -77 977 -236
392 -207 676 -503 931 -972 242 -444 446 -1128 505 -1691 14 -132 25 -166 47
-144 22 22 -35 464 -101 775 -85 399 -248 887 -395 1172 -338 661 -884 1114
-1555 1290 -249 65 -353 78 -660 81 -151 2 -293 1 -315 -1z"/>
<path d="M28175 35599 c-794 -91 -1429 -494 -1843 -1168 -290 -471 -537 -1295
-603 -2004 -9 -96 -9 -131 0 -140 21 -21 30 6 41 123 46 467 210 1074 406
1504 159 350 371 660 586 861 332 309 734 493 1192 546 140 16 487 6 651 -19
467 -72 846 -218 1180 -453 133 -94 326 -291 412 -421 182 -273 251 -514 260
-920 6 -229 -5 -397 -38 -598 -24 -145 -24 -160 -1 -160 19 0 66 75 135 215
156 315 225 684 187 985 -42 327 -214 686 -462 968 -334 377 -861 618 -1497
682 -118 11 -502 11 -606 -1z"/>
<path d="M17320 35090 c-249 -31 -484 -118 -694 -257 -133 -88 -328 -282 -415
-413 -122 -183 -210 -398 -248 -600 -27 -146 -24 -421 5 -567 112 -559 508
-1007 1043 -1182 262 -86 542 -100 813 -41 137 30 208 56 351 126 458 225 767
643 850 1149 22 131 19 367 -4 507 -109 633 -604 1135 -1241 1258 -121 24
-348 33 -460 20z m1153 -691 c85 -28 142 -63 209 -127 111 -105 166 -225 175
-377 25 -436 -428 -732 -818 -534 -70 35 -176 131 -220 200 -140 219 -109 508
76 695 33 33 75 71 93 83 45 31 142 69 205 81 74 13 208 3 280 -21z"/>
<path d="M27750 35094 c-14 -2 -63 -9 -110 -15 -484 -65 -949 -410 -1164 -862
-243 -513 -191 -1109 137 -1574 79 -112 248 -281 360 -360 410 -289 920 -365
1397 -207 530 176 921 624 1031 1186 29 144 32 403 6 543 -122 662 -613 1152
-1272 1271 -79 15 -336 27 -385 18z m-520 -687 c91 -28 163 -71 236 -144 228
-226 229 -571 1 -798 -112 -111 -240 -165 -397 -165 -156 0 -286 54 -396 164
-113 113 -164 239 -164 404 0 261 183 489 440 547 75 17 210 13 280 -8z"/>
<path d="M10370 33834 c-14 -2 -52 -9 -85 -15 -77 -14 -188 -60 -266 -110
-340 -220 -511 -714 -469 -1359 38 -590 213 -1063 516 -1398 272 -300 662
-491 1149 -564 99 -14 600 -19 648 -5 l28 8 -63 46 c-94 68 -304 285 -380 393
-213 302 -313 647 -279 969 27 257 110 410 259 479 106 48 265 42 419 -18 l73
-28 -6 27 c-100 438 -260 784 -495 1066 -259 310 -597 498 -919 510 -58 2
-116 2 -130 -1z"/>
<path d="M15392 32332 c-25 -8 -10 -32 56 -85 274 -224 726 -422 1162 -510
379 -77 736 -93 1120 -50 151 16 179 25 159 49 -9 11 -47 14 -163 14 -810 0
-1641 197 -2217 526 -58 33 -111 58 -117 56z"/>
<path d="M29900 32299 c-101 -60 -295 -154 -442 -213 -513 -209 -1071 -317
-1726 -334 -238 -7 -247 -8 -247 -27 0 -18 11 -21 90 -32 889 -114 1828 118
2390 590 27 23 28 27 15 40 -13 13 -23 10 -80 -24z"/>
<path d="M21765 28860 c-631 -30 -1123 -106 -1486 -228 -166 -56 -157 -44
-103 -139 65 -114 191 -279 289 -377 213 -213 450 -338 714 -376 136 -20 333
-8 475 29 65 17 120 30 121 29 1 -2 18 -34 38 -71 101 -185 268 -346 442 -422
32 -14 96 -38 144 -52 81 -25 98 -27 286 -27 190 0 205 1 289 27 172 53 302
133 422 259 78 82 116 134 163 222 17 33 33 62 35 64 2 2 35 -6 73 -17 302
-88 611 -64 878 71 236 119 468 347 636 623 26 44 45 83 41 87 -13 13 -338 77
-567 112 -546 84 -1100 143 -1655 176 -237 14 -1013 20 -1235 10z"/>
<path d="M26180 25449 c-870 -409 -1932 -719 -2885 -843 -409 -53 -547 -61
-1055 -61 -498 0 -632 8 -960 56 -749 109 -1394 330 -1945 668 -71 43 -133 78
-136 76 -3 -3 -46 -61 -94 -131 -84 -121 -88 -127 -69 -141 44 -34 322 -166
474 -226 580 -229 1197 -365 1945 -429 230 -20 997 -16 1255 5 990 83 1916
288 2968 659 243 85 659 242 669 251 8 8 -59 157 -71 156 -6 0 -49 -19 -96
-40z"/>
<path d="M17816 21068 c7 -80 24 -863 24 -1113 0 -137 3 -334 7 -438 l6 -187
166 -99 c1395 -832 2770 -1299 4121 -1400 789 -60 1649 39 2532 290 613 174
1176 399 1813 723 249 126 649 348 659 365 3 4 10 334 16 732 5 398 13 795 16
882 l7 158 -104 -62 c-1206 -712 -2560 -1189 -3719 -1309 -58 -6 -121 -13
-140 -15 -236 -30 -789 -38 -1041 -17 -234 21 -250 22 -419 43 -1046 129
-2158 499 -3235 1077 -147 79 -500 280 -588 336 -29 18 -68 42 -88 54 l-37 22
4 -42z"/>
<path d="M17433 17770 c-3697 -539 -6535 -1591 -7904 -2927 -98 -96 -131 -123
-149 -121 -49 6 -282 -308 -455 -612 -369 -650 -835 -1812 -1198 -2990 l-45
-145 -319 -68 c-1895 -404 -3303 -753 -3750 -929 -89 -35 -115 -51 -159 -94
-419 -419 -1138 -2919 -2004 -6963 -134 -628 -320 -1529 -320 -1553 0 -4 3345
-8 7433 -8 l7432 0 714 2208 715 2207 4 232 c5 255 -5 388 -44 603 -257 1415
-1521 3117 -3709 4994 -298 256 -518 438 -790 655 -99 79 -186 149 -193 156
-11 10 11 28 110 92 1239 804 2785 1437 4453 1823 149 34 273 65 276 69 4 3
23 128 43 276 110 817 185 1697 231 2724 20 451 21 421 -12 420 -16 0 -178
-23 -360 -49z m-5507 -6490 c359 -92 604 -410 604 -785 0 -254 -138 -515 -344
-654 -151 -102 -242 -132 -426 -138 -118 -5 -147 -2 -225 17 -289 72 -509 292
-585 585 -29 111 -29 289 0 400 73 281 298 506 575 574 113 28 294 28 401 1z"/>
<path d="M27180 17777 c0 -73 29 -696 45 -962 46 -776 113 -1489 201 -2140 20
-148 39 -273 43 -276 3 -4 128 -35 276 -69 1668 -386 3214 -1019 4453 -1823
99 -64 121 -82 110 -92 -7 -7 -94 -77 -193 -156 -1089 -868 -2050 -1764 -2766
-2580 -971 -1108 -1559 -2144 -1730 -3049 -42 -221 -55 -390 -48 -632 l6 -223
714 -2207 714 -2208 7433 0 c4087 0 7432 4 7432 8 0 24 -186 925 -320 1553
-885 4135 -1626 6681 -2035 6993 -184 141 -1688 526 -3878 993 l-319 68 -45
145 c-363 1178 -829 2340 -1198 2990 -173 304 -406 618 -455 612 -18 -2 -51
25 -149 121 -449 438 -1050 843 -1815 1221 -1409 696 -3276 1247 -5445 1606
-284 47 -982 150 -1016 150 -11 0 -15 -11 -15 -43z m6290 -6497 c280 -67 507
-291 580 -575 29 -111 29 -289 0 -400 -63 -245 -222 -433 -457 -542 -110 -51
-203 -66 -358 -60 -110 4 -143 9 -218 35 -206 70 -367 213 -463 409 -224 458
24 1004 516 1132 105 28 285 28 400 1z"/>
</g>
</svg>
