<?xml version="1.0" standalone="no"?>
<!DOCTYPE svg PUBLIC "-//W3C//DTD SVG 20010904//EN"
 "http://www.w3.org/TR/2001/REC-SVG-20010904/DTD/svg10.dtd">
<svg version="1.0" xmlns="http://www.w3.org/2000/svg"
 width="4412.000000pt" height="5353.000000pt" viewBox="0 0 4412.000000 5353.000000"
 preserveAspectRatio="xMidYMid meet">

<g transform="translate(0.000000,5353.000000) scale(0.100000,-0.100000)"
fill="#000000" stroke="none">
<path d="M23490 52724 c-1331 -53 -2595 -311 -4265 -868 -707 -237 -1308 -460
-2665 -991 -1688 -661 -1939 -749 -2435 -860 -731 -163 -1403 -185 -1850 -60
-126 36 -314 131 -403 206 -155 128 -254 316 -278 524 -8 69 -17 85 -51 85
-40 0 -62 -18 -92 -78 -147 -291 -169 -640 -61 -963 116 -349 341 -637 676
-865 l105 -72 -175 -85 c-745 -363 -1464 -840 -2086 -1383 -182 -158 -587
-566 -737 -741 -1019 -1188 -1553 -2432 -1553 -3618 0 -357 50 -712 144 -1025
l31 -105 37 -3 c60 -5 82 24 97 133 78 569 359 1178 797 1725 120 151 298 344
415 451 109 100 296 257 322 271 17 9 17 7 -1 -29 -11 -21 -61 -135 -112 -253
-368 -855 -890 -1779 -1450 -2564 -349 -491 -653 -786 -975 -948 -44 -22 -134
-58 -200 -80 -129 -42 -165 -66 -165 -108 0 -24 9 -31 79 -63 340 -156 663
-231 1046 -244 414 -14 852 65 1229 221 l104 43 7 -86 c46 -635 119 -1033 276
-1505 255 -766 713 -1534 1305 -2188 78 -85 80 -89 138 -245 275 -738 733
-1661 1504 -3033 563 -1000 674 -1211 1182 -2245 55 -110 140 -272 191 -360
50 -88 102 -178 114 -200 13 -22 52 -89 87 -149 l65 -109 -34 -91 c-19 -50
-34 -102 -34 -116 0 -22 53 -283 68 -334 5 -18 7 -18 25 5 29 37 79 137 103
209 l22 65 72 -142 c67 -134 73 -143 100 -143 33 0 77 31 86 61 4 11 -1 62
-10 112 -9 51 -63 367 -121 702 -96 559 -107 632 -125 875 -10 146 -35 434
-54 640 -19 206 -42 456 -51 555 -22 245 -30 1018 -15 1343 39 823 167 1912
291 2467 195 879 510 1485 1055 2031 450 451 889 729 1970 1249 801 385 1129
563 1565 850 134 88 310 213 429 304 l34 26 -13 -25 c-51 -96 -288 -425 -425
-590 -156 -187 -636 -739 -737 -847 -108 -115 -257 -258 -343 -329 -128 -106
-287 -189 -407 -214 -65 -13 -101 -46 -96 -89 2 -22 12 -29 56 -43 347 -111
816 35 1432 447 962 644 1882 1682 2474 2795 31 58 56 102 56 97 0 -21 -67
-317 -111 -487 -217 -840 -546 -1478 -1087 -2105 -637 -740 -1338 -1244 -1885
-1356 -56 -11 -155 -22 -221 -25 -156 -7 -163 -9 -186 -46 -28 -46 -14 -62 77
-86 470 -126 1050 -70 1619 156 657 261 1315 722 1985 1391 260 260 386 399
577 639 544 681 986 1505 1507 2807 60 149 113 275 119 282 15 15 341 105 542
148 285 61 429 76 811 82 466 8 742 -11 1141 -78 1108 -184 2409 -853 3412
-1755 154 -139 460 -446 572 -575 118 -136 232 -284 333 -433 l88 -129 -6
-401 c-6 -435 6 -1149 23 -1366 56 -705 202 -1225 466 -1651 l55 -88 -10 -158
c-5 -87 -7 -405 -4 -708 8 -771 -22 -1506 -112 -2715 -71 -948 -122 -1458
-191 -1895 -42 -266 -41 -252 -9 -267 23 -10 32 -9 63 7 54 29 148 149 247
312 49 81 158 236 245 347 364 469 492 654 731 1064 30 51 69 119 88 150 18
31 67 122 109 202 41 80 193 361 337 625 488 893 629 1169 1105 2150 324 667
345 705 559 975 959 1209 1453 2142 1600 3025 34 205 44 322 44 540 0 290 -28
516 -98 795 -30 121 -110 370 -136 424 -18 38 62 -57 112 -134 101 -153 236
-451 272 -600 36 -147 39 -192 42 -495 2 -174 8 -334 14 -364 6 -29 11 -55 11
-57 0 -14 53 0 75 19 49 42 233 520 330 857 140 486 193 860 182 1284 -11 421
-94 794 -261 1165 -228 508 -555 882 -1099 1259 l-88 61 148 -6 c253 -10 565
28 783 94 335 101 555 280 620 503 30 105 31 117 14 134 -25 26 -45 19 -149
-50 -171 -114 -339 -187 -489 -213 -87 -16 -251 -13 -346 5 -342 65 -727 319
-1125 744 -181 194 -355 407 -720 885 -546 715 -754 929 -1204 1234 -575 389
-1201 632 -1876 728 -162 22 -610 25 -780 5 -225 -28 -491 -84 -659 -139 -86
-28 -96 -25 -96 29 0 45 -49 296 -80 413 -250 942 -945 1830 -1940 2480 -790
516 -1670 817 -2695 920 -311 31 -886 50 -1165 39z"/>
<path d="M17070 37089 c-940 -46 -1609 -294 -1977 -733 -145 -172 -339 -502
-398 -676 -29 -85 -31 -108 -10 -137 l16 -22 117 76 c545 355 729 425 1189
454 284 18 573 -4 1113 -82 513 -74 663 -102 1273 -243 721 -167 1045 -215
1437 -216 221 0 322 8 495 41 130 24 148 34 266 153 84 83 88 90 139 214 59
142 127 340 164 473 21 80 22 88 7 94 -74 30 -300 107 -461 156 -831 256
-1764 408 -2750 449 -269 11 -387 11 -620 -1z"/>
<path d="M27299 37089 c-902 -36 -1804 -179 -2609 -414 -192 -56 -569 -182
-583 -194 -15 -15 101 -379 189 -591 37 -89 45 -101 143 -198 57 -57 114 -107
126 -112 104 -40 370 -70 610 -70 407 0 732 49 1510 230 479 111 684 151 1075
209 721 109 1046 129 1410 90 342 -37 535 -123 1093 -482 l57 -38 16 34 c16
33 15 38 -6 103 -49 152 -249 509 -363 649 -398 491 -1039 737 -2047 785 -235
11 -339 11 -621 -1z"/>
<path d="M26860 34929 c-777 -52 -1477 -444 -1865 -1042 -144 -222 -257 -542
-299 -845 -17 -117 -22 -437 -8 -459 4 -7 24 49 46 130 125 467 180 634 270
823 73 151 124 237 213 356 265 351 658 617 1111 752 29 8 52 13 52 11 0 -2
-35 -23 -78 -48 -372 -215 -619 -555 -709 -977 -25 -120 -25 -420 0 -540 40
-187 116 -366 225 -529 81 -121 262 -301 388 -384 599 -397 1381 -321 1884
183 202 201 328 433 392 721 30 136 32 405 5 542 -38 189 -113 367 -224 536
-78 118 -280 318 -395 391 -48 30 -87 58 -88 62 0 10 145 -42 284 -101 231
-98 478 -248 679 -415 130 -107 350 -331 456 -465 90 -114 289 -408 310 -459
20 -47 30 -39 20 15 -37 194 -119 460 -188 608 -33 70 -55 99 -182 229 -155
160 -279 269 -429 376 -445 318 -935 492 -1492 530 -159 11 -210 11 -378 -1z
m-87 -470 c81 -31 187 -130 227 -212 84 -172 50 -358 -89 -491 -178 -169 -444
-165 -618 10 -134 134 -162 348 -67 510 31 53 118 136 172 163 110 56 262 64
375 20z m-708 -799 c50 -24 75 -65 75 -120 0 -36 -6 -48 -39 -81 -34 -34 -44
-39 -85 -39 -89 0 -136 47 -136 133 0 52 27 92 74 113 43 18 63 17 111 -6z"/>
<path d="M17895 34884 c-270 -27 -430 -56 -618 -110 -347 -101 -699 -287
-1002 -529 -120 -96 -387 -361 -432 -429 -40 -61 -120 -264 -162 -411 -32
-115 -74 -306 -68 -312 2 -2 31 43 64 99 74 125 185 284 289 415 103 128 343
368 470 470 303 241 662 422 1035 522 60 16 109 28 109 25 0 -2 -35 -21 -78
-43 -429 -216 -720 -624 -783 -1098 -15 -111 -6 -352 16 -453 64 -290 186
-512 394 -721 210 -209 440 -335 739 -402 82 -18 128 -21 302 -22 179 0 218 3
309 23 597 134 1031 578 1138 1165 22 124 22 351 -1 477 -21 119 -72 273 -126
382 -123 246 -333 469 -570 608 -39 23 -70 43 -70 45 0 3 39 -9 86 -26 487
-172 891 -501 1132 -922 109 -191 217 -481 304 -817 28 -107 57 -222 66 -255
l16 -60 7 45 c11 69 10 269 -1 378 -24 219 -83 445 -170 649 -93 216 -217 399
-394 582 -376 386 -868 628 -1436 706 -110 15 -481 28 -565 19z m26 -491 c120
-57 203 -152 241 -277 58 -191 -39 -399 -230 -493 -64 -32 -85 -37 -162 -41
-114 -6 -203 20 -286 81 -69 50 -105 95 -142 175 -24 51 -27 69 -27 167 0 103
2 114 31 176 54 114 141 190 262 230 90 30 229 22 313 -18z m-704 -793 c73
-44 83 -139 19 -197 -45 -42 -94 -51 -142 -27 -53 27 -76 62 -76 117 0 77 49
126 127 127 23 0 54 -9 72 -20z"/>
<path d="M28949 32339 c-91 -68 -235 -144 -429 -228 -429 -183 -734 -271
-1104 -318 -182 -23 -651 -23 -871 1 -498 52 -1038 152 -1318 243 -215 69 10
-55 247 -136 249 -86 625 -169 956 -210 246 -31 337 -36 635 -35 236 1 303 4
425 23 404 61 706 155 1040 324 200 100 323 179 408 261 110 106 118 155 11
75z"/>
<path d="M16125 32330 c-17 -27 126 -165 253 -243 202 -125 512 -266 727 -332
582 -177 1112 -198 1863 -74 205 34 552 118 712 174 116 40 341 146 324 152
-6 2 -63 -12 -125 -31 -216 -65 -661 -152 -1029 -200 -586 -77 -1049 -67
-1480 33 -380 88 -911 304 -1147 467 -51 35 -95 59 -98 54z"/>
<path d="M21315 31438 c-2 -7 -82 -229 -176 -493 -197 -552 -408 -1180 -449
-1340 -34 -132 -49 -238 -52 -360 -2 -81 0 -95 24 -141 54 -103 229 -298 376
-417 163 -133 419 -274 611 -336 177 -58 295 -76 496 -76 205 0 327 20 514 81
140 46 364 159 476 239 114 82 265 221 265 245 0 37 -31 30 -113 -28 -142
-100 -228 -152 -367 -221 -154 -76 -278 -120 -430 -151 -144 -30 -330 -24
-474 14 -312 84 -609 242 -861 459 -126 108 -279 276 -314 345 -13 26 -30 55
-39 64 -22 26 -11 196 23 328 14 58 110 389 212 735 150 512 303 1047 303
1062 0 9 -21 1 -25 -9z"/>
<path d="M30666 30382 l-38 -239 32 -119 c33 -125 80 -236 124 -293 18 -24 27
-30 31 -20 2 8 20 88 39 179 l35 165 -59 165 c-74 208 -98 287 -106 350 -4 27
-9 50 -13 50 -3 0 -23 -107 -45 -238z"/>
<path d="M25890 26803 c-8 -3 -80 -35 -160 -70 -260 -117 -299 -129 -507 -157
-316 -43 -645 -74 -998 -96 -472 -28 -1535 -51 -2465 -53 -768 -2 -821 0
-1625 53 -159 11 -384 24 -500 30 -343 18 -458 41 -577 116 -23 15 -55 27 -71
26 -33 -1 -77 -37 -77 -62 0 -26 88 -103 150 -132 122 -58 210 -71 650 -97
783 -47 978 -49 2445 -16 1547 34 2639 89 3175 161 465 61 620 109 680 207 25
40 25 52 0 77 -20 20 -82 26 -120 13z"/>
<path d="M20674 25379 c-8 -14 18 -35 115 -90 183 -106 391 -156 791 -193 432
-40 936 -45 1210 -12 123 15 654 109 797 142 69 15 104 36 89 52 -15 14 -198
2 -413 -28 -353 -49 -465 -60 -708 -66 -608 -17 -1332 55 -1737 172 -135 38
-134 38 -144 23z"/>
</g>
</svg>
